<svg xmlns="http://www.w3.org/2000/svg" viewBox="0 0 256.57 85.99">
    <defs>
        <style>
            .cls-1-full {
                fill: #691e4b;
            }

            .cls-2-full {
                fill: #d83b0f;
            }

            .cls-3-full {
                fill: #fcbf00;
            }
        </style>
    </defs>
    <g id="Capa_2" data-name="Capa 2">
        <g id="Capa_1-2" data-name="Capa 1">
            <path class="cls-1-full"
                d="M119.68,13.07c.32-.08.59.06.81.44a14.55,14.55,0,0,0,1,2A5.22,5.22,0,0,0,123,16.94a1.59,1.59,0,0,1,.57.68l0,.12c0,.15-.07.25-.3.28a1.37,1.37,0,0,1-.43.25,3,3,0,0,1-1.39-.64c-.24-.24-.71-.76-1.42-1.54l-.19-.11a15.39,15.39,0,0,1-1.09,1.86,2.74,2.74,0,0,1-1.62.95,1.44,1.44,0,0,1-1.48-.45l-.11-.28c-.21-.63.12-1.53,1-2.79a13.28,13.28,0,0,1,2.26-1.74,1.6,1.6,0,0,1,.75-.43Zm-2.47,4.46h0c.38-.08.7-.41,1-1,.54-.81.77-1.42.67-1.79h-.09a5.78,5.78,0,0,0-1.29,1.3,1.73,1.73,0,0,0-.29,1.46Z" />
            <path class="cls-1-full"
                d="M127.9,12.24c.57,0,.88,0,.95.13a8.91,8.91,0,0,1,1.3,1.88c.41.76.84,1.48,1.29,2.17,0,0-.07.17-.25.33,0,.08,0,.12-.07.12a1.65,1.65,0,0,1-1.74-1,6.71,6.71,0,0,0-1-1.52h0c-.45,1.92-.83,2.87-1.16,2.91l-.21,0c-.61.07-1.06-.4-1.37-1.42-.26-.8-.43-1.19-.49-1.18a3.6,3.6,0,0,0-.42,1.53c-.1.91-.38,1.38-.83,1.45a1.42,1.42,0,0,1-.67-.1v-.11l0-.08-.18-.12a2.15,2.15,0,0,0,0-.76c-.12-.42-.23-.84-.35-1.26l0-.31c.18,0,.24-.16.19-.4l0-.1s.12-.12.37-.24c0-.09,0-.13.09-.14l.35,0a3.86,3.86,0,0,0,.71-.86,1.8,1.8,0,0,1,.33-.27,1.71,1.71,0,0,1,1.92,1,1.33,1.33,0,0,0,.14.19h.05a8.7,8.7,0,0,0,.32-1.16,1.36,1.36,0,0,1,.3-.47h.23l.16-.24Z" />
            <path class="cls-1-full"
                d="M136.33,10c.33,0,.58.19.74.68a20,20,0,0,0,.74,2.54,6.43,6.43,0,0,0,1.2,2,1.88,1.88,0,0,1,.47.9v.15c0,.19-.11.29-.35.29a1,1,0,0,1-.46.24,2.78,2.78,0,0,1-1.28-1c-.21-.32-.6-1-1.18-2.09l-.18-.16a17.56,17.56,0,0,1-1.36,2.08,2.46,2.46,0,0,1-1.75.91,1.3,1.3,0,0,1-1.4-.79c0-.12-.05-.24-.07-.36-.11-.81.35-1.87,1.42-3.26a12.76,12.76,0,0,1,2.51-1.74,1.55,1.55,0,0,1,.81-.4Zm-3.12,5h0c.39,0,.75-.39,1.09-1a3.58,3.58,0,0,0,.93-2.07l0,0h-.05a5.54,5.54,0,0,0-1.48,1.37,2.46,2.46,0,0,0-.51,1.74Z" />
            <path class="cls-1-full"
                d="M145.74,9.88c.54.07.81.32.81.73,0,.81-.86,1.75-2.53,2.8a12.16,12.16,0,0,0-1.91,1.25v0c.39.05,1.43.1,3.12.18a5.67,5.67,0,0,1,1,.23v.08c-.11.55-.24.83-.39.83a20.21,20.21,0,0,1-2.62.21h-.62a8,8,0,0,1-2-.18l-.51.06c-.64,0-1-.15-1.13-.5a2.6,2.6,0,0,1,.31-.84c0-.1.3-.33.93-.68l2.46-1.57a8.89,8.89,0,0,0,.84-.74l-3.57.42a.66.66,0,0,1-.41-.64.94.94,0,0,1,.76-1l.7,0c.42,0,1.88-.3,4.45-.73Z" />
            <path class="cls-1-full"
                d="M148.28,6.21c.45,0,.73.06.81.28s0,.21.08.32c0,.33-.37.58-1.09.74h-.19c-.53,0-.79-.14-.79-.41l0-.1V6.91a1.06,1.06,0,0,1,1.05-.69Zm.38,2.87a19.34,19.34,0,0,1,.23,3.63c0,.25,0,.5,0,.76,0,.94-.09,1.88-.13,2.82a1.73,1.73,0,0,1-.6.21l-.19.21h0q-.21,0-.39-.36c0,.11,0,.16-.05.16a2.1,2.1,0,0,1-.36-1.5l.27-3.16c0-.41,0-1,0-1.9s.26-1.09.77-1.11C148.49,8.82,148.67,8.9,148.66,9.08Z" />
            <path class="cls-1-full"
                d="M154.73,8.65a11.69,11.69,0,0,1,.49,2.1c.17,2.58.29,4.3.4,5.12q.09,0,.09.54v.05c0,.32-.22.46-.58.44h-.05c-.52,0-.77-.17-.75-.38a9.78,9.78,0,0,1-.46-2.11c-.1-1.21-.21-2.42-.33-3.61h0a18.62,18.62,0,0,0-2.34,4.43,6.72,6.72,0,0,1-.59,1.07c0-.05-.08-.09-.25-.12H150a.21.21,0,0,1-.22-.26l-.27-.56a21.57,21.57,0,0,0,.49-4.61,2.41,2.41,0,0,0,.58-.42c0-.08,0-.12.11-.12.64.08.95.17.95.28l-.09.24,0,0h0a6,6,0,0,0,1-1.32c.49-.7.94-1.05,1.33-1.06C154.46,8.5,154.74,8.6,154.73,8.65Z" />
            <path class="cls-1-full"
                d="M160.89,10.05a2.28,2.28,0,0,1,1.85.84.21.21,0,0,1,.12.25.85.85,0,0,0-.3.24c-.23,2.57-.44,4.51-.61,5.78a13.08,13.08,0,0,1-1.16,4.59c-.64,1.12-1.35,1.61-2.16,1.47a2.71,2.71,0,0,1-1.88-1.44l0-.11,0-.12a2.92,2.92,0,0,0-.49-1.41,2.08,2.08,0,0,1-.17-.95.77.77,0,0,1,.24-.56h.1c.08,0,.19.13.35.36.2,0,.29.09.28.18a3.77,3.77,0,0,0,1,1.81,6.1,6.1,0,0,1,.57.6,1.51,1.51,0,0,0,.94-.69,7.76,7.76,0,0,0,.76-2.73c.12-1.19.25-2.38.37-3.56l.09-.58a14.14,14.14,0,0,0-1.38,1.82,1.93,1.93,0,0,1-1.49.84l-.18,0c-.29,0-.6-.27-.93-.74a.87.87,0,0,1-.35-.76,3.5,3.5,0,0,1-.06-1.1l0-.2A4.17,4.17,0,0,1,159,10.35a4.07,4.07,0,0,1,1.7-.31ZM158,14.29c0,.2,0,.4,0,.6a3.51,3.51,0,0,0,1.35-1.4c.45-.7.85-1.29,1.2-1.76,0-.07,0-.11-.09-.11a2.49,2.49,0,0,0-1.52.67,2.9,2.9,0,0,0-.91,1.8Z" />
            <path class="cls-1-full"
                d="M110.05,8.78a5.32,5.32,0,0,1,2.59.43.6.6,0,0,1,.2.14c.28.31.11,1.21,0,1.59a3.92,3.92,0,0,1-.52,1.27,6,6,0,0,1-2.08,1.92,19.2,19.2,0,0,1-5.78,2l-.67.13c-.81.16-1.62.31-2.44.42-4.51.61-6.76,1.1-6.74,1.43a17.38,17.38,0,0,0-.7,6.51l.06,1c7.33-2.14,12.86-3.27,16.55-3.43,1,0,1.91-.17,2.87-.1a1.9,1.9,0,0,1,1.21.33c.28.3.18.69.28,1s.48.71.15,1.19a7.13,7.13,0,0,1-2.5,1.91,14.9,14.9,0,0,1-3.74,1.28c-4.63,1-9.55,1.25-14,3.18,0,1.12,0,2.19,0,3.21A23.54,23.54,0,0,0,97,43l1.14,2.06.49.08c1.89-.09,5.4-1.47,10.58-4.1q8.05-3.78,12.94-4c2.3,0,3.46.18,3.47.43,0,1,.07,1.92.1,2.88,0,.14-1.21.43-3.64.85a47.16,47.16,0,0,0-17.94,9.36,11.12,11.12,0,0,1-5.5,2.2l-1,0q-3.41.16-6.13-6-1.91-4-2.78-13.12a6.73,6.73,0,0,1-1.76-.28,7.26,7.26,0,0,1-1.55-.78.33.33,0,0,1-.14-.12.39.39,0,0,1-.06-.24c0-1.61,1.07-2.9,2-4.13.37-.48.22-.94.18-1.49s0-1.26,0-1.88l0-4.39.08-.1-1.13.15-.82.05c-.83,0-2.07.09-2.64-.62a1.84,1.84,0,0,1-.32-1.1A4,4,0,0,1,84,15.3a12.82,12.82,0,0,1,4.87-2.16c.35-.09.71-.71.94-.94a22.69,22.69,0,0,1,1.79-1.6,3.48,3.48,0,0,1,.85-.56,3.46,3.46,0,0,1,2.27.32c.5.21,2,1.61,2.3,1.59h.19c1.89-.09,4.92-.91,9.11-2.45a10.11,10.11,0,0,1,3.26-.69Z" />
            <path class="cls-1-full"
                d="M125.43,19.86a8,8,0,0,1,2.34.18c1.09.33,1,.87,1.18,1.81.09.58.47,1,.35,1.68a1.88,1.88,0,0,1-.68,1A7.63,7.63,0,0,1,126,25.82a6.26,6.26,0,0,0-3.24,1.93c-1,1.43-1.63,4.13-.63,5.71,1.23,2,4.14,1.57,6.09,1.13A39.75,39.75,0,0,0,135.4,32l1.48-.68a15.88,15.88,0,0,1,4.23-1.41h.18c1.12,1,1.69,1.71,1.74,2.2-.06.34-1,1.34-2.72,3-.38.83-.82,1.25-1.33,1.27q-8.43,5.1-14.4,5.32A9.18,9.18,0,0,1,118,39.5a8.19,8.19,0,0,1-2.21-3.36,11.74,11.74,0,0,1-.43-4,13.15,13.15,0,0,1,2.3-7.31,17.29,17.29,0,0,1,3.09-3.48A9.19,9.19,0,0,1,125.43,19.86Z" />
            <path class="cls-1-full"
                d="M152.24,22.48a3.71,3.71,0,0,1,1.2.17,2.6,2.6,0,0,1,1.46,1,5.4,5.4,0,0,1,.28,1.66c.09.64.18,1.27.28,1.91.19,1.25.42,2.49.68,3.72.23,1.05.46,2.12.79,3.14a13.32,13.32,0,0,0,1.16,3.18c.61,1,2.21,3.36.84,4.37a1.22,1.22,0,0,1-.68.18A5.13,5.13,0,0,1,154,39.92c-1.31-1.54-1.78-3.55-2.94-5.16a43.38,43.38,0,0,1-3.87,3.92c-1.33,1-5.67,3.45-7.28,1.93a5.43,5.43,0,0,1-1.15-3,21.66,21.66,0,0,1,.06-7.36,16.48,16.48,0,0,1,2.3-6.12,3.08,3.08,0,0,1,2.11-1.22,3.34,3.34,0,0,1,2.35,1.22c.8.9.18,2.07-.06,3.08-.29,1.2-.63,2.4-1,3.59a8.34,8.34,0,0,0-.22,2.4c0,.12,0,.24,0,.36C145.77,32.8,147,31,148,28.11c.44-1.14.9-2.27,1.43-3.38.29-.6.72-1.77,1.38-2.07a1.45,1.45,0,0,1,.41-.1C151.55,22.52,151.9,22.49,152.24,22.48Z" />
            <path class="cls-1-full"
                d="M179.11,15.65c1.51.19,2.15,1.37,2.48,2.86a76.31,76.31,0,0,0,2,9.85A17.83,17.83,0,0,0,186,33.79c.84,1.26,2.12,3,1.15,4.52a3.53,3.53,0,0,1-1.38,1.08A3.89,3.89,0,0,1,183,40c-1.34-.38-2.06-2.71-2.62-3.87s-1.13-2.41-1.67-3.63c-.28-.62-.55-1.25-.83-1.87a8,8,0,0,0-.91-1.42,72,72,0,0,1-5.76,7.66A9.58,9.58,0,0,1,164.32,40a4.74,4.74,0,0,1-4.94-3.62l-.11-1.47c-.18-2.19,1-4.55,2-6.39a24.53,24.53,0,0,1,5.64-6.9,36.62,36.62,0,0,1,8.66-4.8,5,5,0,0,1,3.05-1.17ZM165.94,34c.43.24,1.61-.39,1.89-.57a6.75,6.75,0,0,0,1.62-1.58c1.09-1.43,2.1-2.9,3.13-4.36a10.56,10.56,0,0,0,2-4.18c.06-.36.27-.92-.32-.85a3.34,3.34,0,0,0-1.54.67,31.57,31.57,0,0,0-2.75,2.56,15.06,15.06,0,0,0-2.46,2.83,10.89,10.89,0,0,0-1.67,5,.55.55,0,0,0,0,.36A.2.2,0,0,0,165.94,34Z" />
            <path class="cls-1-full"
                d="M208.29,1.58a.52.52,0,0,1,.1.18c.23.5.88.65,1.26,1.05.66.7.66,2.24.75,3.12a30.39,30.39,0,0,1,.18,3.69q-.06,4.37-.13,8.73a23.85,23.85,0,0,0,1.36,7.75,44.71,44.71,0,0,0,1.76,4.45,15.31,15.31,0,0,0,2.2,3.82,3.91,3.91,0,0,1,1,1.82,3.41,3.41,0,0,1-.72,2.47c-.73,1-1.52,1-2.67.82a4.13,4.13,0,0,1-2.05-.76,5,5,0,0,1-1.2-1.36,4.81,4.81,0,0,1-.87-1.93,9.48,9.48,0,0,0-2.11-3.14c-.8,1.94-2.54,3.73-5.2,5.37a18.38,18.38,0,0,1-5.07,1.87c-1.78.45-3.89.76-5.62,0a4.59,4.59,0,0,1-2.44-3.46c-.42-2.21.66-4.36,2-6a28,28,0,0,1,6.53-5.88,15.14,15.14,0,0,1,5.18-2.32c.19,0,.39-.07.58-.13,1.55-.55,1-2.43.85-3.62-.13-1.45-.25-2.9-.37-4.35-.13-1.67-.21-3.35-.28-5l-.09-2.56c0-.62-.26-1.68.11-2.23a6.27,6.27,0,0,1,4.77-2.37.49.49,0,0,1,.16.05Zm-11.66,33q4,0,6.63-6.06a3.29,3.29,0,0,0,.48-1.39,10.77,10.77,0,0,0-6.43,4.57,9.72,9.72,0,0,0-1.49,2.79Z" />
            <path class="cls-1-full"
                d="M228.41,20.17c.36,0,.71.08,1.05.13,3,.49,4.64,2.87,5.45,5.52a9.18,9.18,0,0,1,.46,3.24l0,.82a12.14,12.14,0,0,1-5.25,10,10.34,10.34,0,0,1-4.9,1.47h-.33c-4.73-.08-7.18-4.91-7.3-9a24.28,24.28,0,0,1,1.06-7.47,1.71,1.71,0,0,1,1-1.32,7.25,7.25,0,0,0,1.65-.61c.93-.74,1.41-2,2.62-2.35A12.73,12.73,0,0,1,228.41,20.17ZM223.68,28a26.62,26.62,0,0,0,0,5.28c.06.65.36,2.59,1.31,2.53a1.37,1.37,0,0,0,.45-.13,7.06,7.06,0,0,0,3.82-4.83c.44-1.91.12-4.47-1.47-5.84a.77.77,0,0,0-.54-.26,3.19,3.19,0,0,0-1.92,1A7.22,7.22,0,0,0,224,27.1,2,2,0,0,0,223.68,28Z" />
            <path class="cls-1-full"
                d="M255.46,23.29l.16.29c.5.92,1.13,1.9.9,2.91s-1.62,1.7-2.53,2.17a25,25,0,0,0-4.05,2.4,23,23,0,0,0-4.5,4.64,29.06,29.06,0,0,0-3.67,7.19c-.23.62-1,.45-1.48.46a5.46,5.46,0,0,1-1.61-.18c-1.29-.37-3,.26-2.5-3.53.14-1.07.25-2.14.3-3.21.16-3,0-6.15.32-9.21.08-.79.19-1.57.34-2.34a8.21,8.21,0,0,1,.59-2.25c.58-1,2.12-1,3.14-.91l.22.06q2.79.67,2.38,4.49c-.16.46-.33.92-.5,1.38a73.84,73.84,0,0,0,7.61-4.4c.67-.43,1.36-.76,2.06-1.13a1.57,1.57,0,0,1,1.87-.06A3.31,3.31,0,0,1,255.46,23.29Z" />
            <path class="cls-2-full"
                d="M117,49.66c3.44-.6,5.71.81,6.2,3.68.15.82.29,1.63.43,2.45.48,2.84-1.13,4.88-4.44,5.46L115,62c-.55.11-.77,0-.87-.54q-1-5.1-2.08-10.19c-.1-.51,0-.73.62-.83Zm2.77,4.3c-.22-1.18-1-1.65-2.35-1.42l-1.43.25c.38,2,.75,3.92,1.13,5.88l1.41-.25c1.32-.23,1.88-.93,1.67-2.11C120,55.52,119.87,54.74,119.73,54Z" />
            <path class="cls-2-full"
                d="M124.83,49c-.08-.47.08-.68.59-.76l2.09-.31c.51-.08.74.07.81.55l1.62,10.34c.07.47-.09.68-.59.75l-2,.3c-.5.08-.72-.07-.8-.55Z" />
            <path class="cls-2-full"
                d="M136.71,46.73c2.72-.33,4.6.94,4.9,3.46a3.54,3.54,0,0,1-1.48,3.61,3.11,3.11,0,0,1,.56.65c.64.88,1.27,1.76,1.9,2.65.31.41.2.79-.35.85l-1.86.21c-.89.11-1.33,0-1.68-.6-.47-.71-.94-1.41-1.4-2.12a1.33,1.33,0,0,0-1.42-.68l-.4.05c.15,1.07.3,2.13.44,3.2.07.51-.07.71-.62.78l-1.94.26c-.55.07-.76-.08-.84-.59q-.75-5.15-1.53-10.29c-.07-.5.1-.71.66-.79C133.34,47.15,135,46.94,136.71,46.73Zm0,2.93-1.9.24.3,2.17,1.89-.24a1,1,0,0,0,1-1.24A1,1,0,0,0,136.7,49.66Z" />
            <path class="cls-2-full"
                d="M151.74,45.19c.57,0,.79.12.83.63s.09,1,.13,1.49-.13.73-.7.78c-1.55.12-3.11.26-4.66.41l.15,1.47,3.71-.34c.56,0,.77.12.82.64s.09,1,.13,1.48-.12.73-.68.78l-3.69.33c.06.53.11,1.06.17,1.58l4.74-.42c.54,0,.75.11.79.64s.09,1,.13,1.5-.13.71-.66.76q-3.69.3-7.38.68c-.55,0-.76-.11-.81-.62l-1.17-10.33c-.06-.51.12-.71.69-.77Q148,45.51,151.74,45.19Z" />
            <path class="cls-2-full"
                d="M154.83,49.36c-.24-2.89,1.61-4.79,5.12-5,2.7-.16,4.5.72,5.38,2.62.22.47.07.74-.44.92l-1.85.72c-.54.18-.76.11-1-.39a1.81,1.81,0,0,0-1.91-1c-1.37.08-1.91.67-1.83,1.85.07,1,.14,2,.22,3,.08,1.18.7,1.68,2,1.6a1.76,1.76,0,0,0,1.75-1.18c.18-.55.36-.66.92-.5l1.9.53c.52.13.69.38.52.87-.67,2-2.29,3-4.89,3.18-3.38.21-5.45-1.38-5.7-4.27Z" />
            <path class="cls-2-full"
                d="M176.23,44c.57,0,.77.17.78.68l0,1.5c0,.53-.19.71-.75.72l-2.63.06c.08,2.73.15,5.45.23,8.18,0,.51-.17.7-.73.72l-1.95.06c-.55,0-.73-.16-.75-.68-.11-2.72-.21-5.45-.31-8.17l-2.65.1c-.57,0-.75-.15-.78-.68s0-1-.07-1.49.15-.71.72-.73Q171.8,44,176.23,44Z" />
            <path class="cls-2-full"
                d="M188.56,43.91c2.74,0,4.42,1.55,4.35,4.08a3.58,3.58,0,0,1-2,3.38,3.25,3.25,0,0,1,.46.72l1.5,2.87c.25.46.08.82-.47.8l-1.87,0c-.9,0-1.32-.23-1.59-.83-.35-.76-.72-1.52-1.08-2.28a1.28,1.28,0,0,0-1.3-.86h-.4l0,3.22c0,.52-.18.7-.73.7h-2c-.55,0-.74-.18-.74-.69l0-10.39c0-.52.19-.7.77-.7Zm-.43,2.9-1.92,0c0,.73,0,1.46,0,2.19l1.9,0a1.06,1.06,0,0,0,1.18-1.1C189.3,47.24,188.89,46.82,188.13,46.81Z" />
            <path class="cls-2-full"
                d="M195,48.45c.09-2.9,2.15-4.6,5.66-4.45s5.39,2,5.21,4.92c-.07,1-.13,2-.19,3-.19,2.9-2.23,4.52-5.6,4.37s-5.26-1.93-5.18-4.84C194.91,50.44,194.94,49.44,195,48.45Zm7.38.14c.05-1.05-.63-1.63-1.85-1.68s-2,.46-2,1.51-.1,2.19-.14,3.28.61,1.62,1.85,1.67,1.93-.46,2-1.5Z" />
            <path class="cls-2-full"
                d="M209.58,45.52a6.38,6.38,0,0,1,4-.73c2.62.2,4.07,1.07,4.75,2.73.19.45,0,.75-.51.89L216,49c-.49.16-.68.08-.92-.42a1.81,1.81,0,0,0-1.71-1c-1.12-.08-1.71.16-1.76.74s.68.88,2.23,1.18a8.57,8.57,0,0,1,2.47.77,3.17,3.17,0,0,1,1.84,3.48,3.24,3.24,0,0,1-1.76,2.63,7,7,0,0,1-4,.69c-2.69-.21-4.3-1.17-4.84-2.92-.16-.53,0-.73.53-.88l1.68-.46c.52-.14.78,0,1,.44a2,2,0,0,0,1.9,1c1.24.1,1.89-.16,1.95-.79s-.6-.85-2-1.14a12.19,12.19,0,0,1-1.42-.34,4.27,4.27,0,0,1-.74-.22,5.37,5.37,0,0,1-1.32-.69,2.92,2.92,0,0,1-.91-1.15,4,4,0,0,1-.27-1.77A3.17,3.17,0,0,1,209.58,45.52Z" />
            <path class="cls-2-full"
                d="M229.17,46.57c.57.07.74.27.67.78s-.13,1-.19,1.48-.29.69-.85.62c-1.55-.18-3.1-.36-4.66-.52-.06.49-.11,1-.17,1.47,1.24.13,2.48.26,3.71.41.56.06.73.27.67.78s-.13,1-.19,1.48-.28.68-.84.62l-3.68-.41-.18,1.58,4.74.54c.54.06.71.25.64.78s-.13,1-.2,1.49-.28.67-.81.61q-3.68-.44-7.37-.8c-.55-.06-.72-.26-.67-.77l1.08-10.33c.06-.52.27-.68.84-.62Q225.45,46.12,229.17,46.57Z" />
            <path class="cls-2-full"
                d="M233.31,47.85a6.5,6.5,0,0,1,4-.48c2.61.37,4,1.32,4.57,3,.15.46,0,.75-.58.85l-1.86.45c-.51.12-.69,0-.9-.49a1.8,1.8,0,0,0-1.64-1.1c-1.11-.16-1.72,0-1.8.62s.62.92,2.15,1.32a8.66,8.66,0,0,1,2.41.92,3.62,3.62,0,0,1,1,.83,3.51,3.51,0,0,1,.6,2.76,3.26,3.26,0,0,1-1.93,2.51,7,7,0,0,1-4,.44c-2.67-.37-4.22-1.43-4.65-3.21-.12-.53.07-.73.59-.85L233,55.1c.53-.12.78,0,1,.49a2,2,0,0,0,1.83,1.14c1.23.17,1.9,0,2-.67s-.53-.88-1.88-1.26c-.69-.19-.7-.18-1.39-.42a5.15,5.15,0,0,1-.72-.27,5.45,5.45,0,0,1-1.28-.77,2.88,2.88,0,0,1-.83-1.21,4.12,4.12,0,0,1-.15-1.78A3.21,3.21,0,0,1,233.31,47.85Z" />
            <path class="cls-2-full"
                d="M114,67.52l1.41-.37c.91-.23,2.23-.56,3.91-.94,3.37-.76,8.19-1.75,14-2.72,2.92-.49,6.09-1,9.46-1.4s6.93-.86,10.63-1.2,7.52-.64,11.41-.89c1.95-.1,3.92-.2,5.89-.28s4-.15,5.93-.17,4-.07,5.94-.06h3l2.93,0,2.91.06,2.87.11,2.84.11,2.79.16,2.75.16,2.69.21c1.77.14,3.5.26,5.18.44s3.32.31,4.89.51l4.55.54c1.46.19,2.85.4,4.17.59s2.58.36,3.74.56c2.34.4,4.39.71,6,1l5.23,1c.6.11,1,.55.79,1a1.21,1.21,0,0,1-1.33.56h0l-5.22-.84c-1.66-.28-3.7-.53-6-.86-1.16-.17-2.41-.3-3.72-.45s-2.69-.32-4.14-.46L215,63.54c-1.56-.15-3.19-.24-4.85-.36s-3.37-.21-5.12-.3l-2.65-.13-2.71-.08-2.75-.08-2.8,0-2.83,0-2.85,0-2.88,0-2.9.07c-1.93,0-3.87.13-5.81.22s-3.87.22-5.8.33-3.85.28-5.75.43c-3.79.35-7.52.72-11.11,1.17s-7,1-10.3,1.46-6.32,1.06-9.12,1.61c-5.62,1.09-10.22,2.18-13.4,3-1.59.4-2.81.74-3.64,1l-1.23.36-.09,0c-1.85.54-3.91-.06-4.6-1.35s.24-2.78,2.09-3.32Z" />
            <path class="cls-2-full"
                d="M128.4,71.31c.18,0,.23,0,.27.16l.06.31c0,.14,0,.21-.17.25-.89.18-1.13.5-1,1.3l0,.16,1.2-.24c.15,0,.22,0,.25.16s0,.2.07.31,0,.21-.17.25l-1.19.24c.26,1.18.51,2.36.77,3.54,0,.17,0,.22-.18.26l-.36.07c-.17,0-.23,0-.27-.16L127,74.38l-.69.14c-.16,0-.23,0-.26-.16s0-.2-.07-.3,0-.22.17-.25l.69-.15a1.24,1.24,0,0,0,0-.16c-.27-1.21.19-1.89,1.54-2.17Z" />
            <path class="cls-2-full"
                d="M132,72.5c.17,0,.23,0,.26.17l.06.29c0,.15,0,.22-.18.25l-.32.06a4,4,0,0,0-1,.35.2.2,0,0,0-.09.2c.24,1.13.47,2.25.7,3.37,0,.17,0,.22-.17.25l-.38.08c-.15,0-.22,0-.25-.17-.26-1.22-.51-2.43-.77-3.64-.06-.28,0-.39.25-.56a5.09,5.09,0,0,1,1.62-.59Z" />
            <path class="cls-2-full"
                d="M132.86,74.26c-.24-1.18.34-2,1.69-2.25A1.85,1.85,0,0,1,137,73.45l.09.5c0,.2-.05.33-.28.37l-3,.53.09.42c.13.67.63,1,1.41.82a1.38,1.38,0,0,0,1.15-.83.23.23,0,0,1,.34-.14l.27.08c.17,0,.21.16.14.33a2.09,2.09,0,0,1-1.77,1.24,1.79,1.79,0,0,1-2.37-1.43Zm3.29-.71c-.14-.7-.65-1-1.47-.87s-1.17.64-1,1.32a1.84,1.84,0,0,0,0,.25l2.49-.45C136.18,73.72,136.16,73.63,136.15,73.55Z" />
            <path class="cls-2-full"
                d="M139.31,71.19a2,2,0,0,1,2.08.63.19.19,0,0,1,0,.32l-.3.17c-.16.1-.19.08-.31,0a1.16,1.16,0,0,0-1.28-.38q-1,.18-.93.81c.09.51.47.55,1.37.48a3.45,3.45,0,0,1,1.42.13,1.1,1.1,0,0,1,.61.92c.15.86-.42,1.5-1.65,1.7a1.93,1.93,0,0,1-2.18-.73.19.19,0,0,1,.08-.31l.29-.15a.22.22,0,0,1,.32.08,1.2,1.2,0,0,0,1.34.42c.75-.12,1.09-.4,1-.85s-.45-.56-1.33-.49a4.24,4.24,0,0,1-1.08,0,1.18,1.18,0,0,1-.47-.15,1.22,1.22,0,0,1-.55-.87C137.55,72,138.1,71.39,139.31,71.19Z" />
            <path class="cls-2-full"
                d="M142.47,68.81c.16,0,.23,0,.25.17l.3,1.81a3.19,3.19,0,0,1,1.26-.38c1.25-.19,2,.3,2.14,1.46.14.9.27,1.8.41,2.7,0,.17,0,.22-.19.24l-.37.06c-.17,0-.22,0-.25-.18-.14-.89-.28-1.79-.41-2.68-.11-.69-.55-1-1.33-.87a2.81,2.81,0,0,0-1.14.38l.57,3.51c0,.15,0,.22-.17.25l-.39.06c-.15,0-.22,0-.25-.18-.33-2-.67-4-1-6,0-.17,0-.22.19-.24Z" />
            <path class="cls-2-full"
                d="M149.47,71.47c-.16-1.11.44-1.85,1.82-2a1.83,1.83,0,0,1,2.11.94.21.21,0,0,1-.11.32l-.31.13a.21.21,0,0,1-.33-.1,1.13,1.13,0,0,0-1.3-.59c-.79.1-1.15.53-1.06,1.19l.18,1.33c.1.65.56,1,1.34.89a1.11,1.11,0,0,0,1.09-.91c.06-.18.11-.22.3-.18l.33.05c.16,0,.23.13.19.28a1.9,1.9,0,0,1-1.84,1.45c-1.32.17-2.08-.39-2.24-1.51C149.59,72.31,149.53,71.89,149.47,71.47Z" />
            <path class="cls-2-full"
                d="M157.93,68.82c.17,0,.22,0,.24.18.14,1.23.27,2.45.41,3.68,0,.28,0,.38-.3.52a5,5,0,0,1-1.71.49,1.62,1.62,0,0,1-2.07-1.53l-.33-2.72c0-.16,0-.21.19-.23l.39,0c.16,0,.22,0,.24.19l.33,2.69c.08.69.51,1,1.28.92a3.85,3.85,0,0,0,1-.26.22.22,0,0,0,.12-.22c-.13-1.13-.26-2.26-.38-3.39,0-.17,0-.22.2-.23Z" />
            <path class="cls-2-full"
                d="M160.27,67.51c.16,0,.23,0,.25.19s.06.57.08.85l1.22-.11c.16,0,.22,0,.24.19l0,.31c0,.15,0,.21-.2.23l-1.21.11.21,2a1.25,1.25,0,0,0,.34.9,1.49,1.49,0,0,0,1,.14c.17,0,.23,0,.25.19l0,.32c0,.15,0,.21-.21.23a2.24,2.24,0,0,1-1.59-.23,2,2,0,0,1-.6-1.45c-.07-.69-.14-1.38-.22-2.07l-.77.08c-.15,0-.22,0-.24-.19l0-.31c0-.17,0-.22.2-.23l.77-.08-.09-.85c0-.16,0-.21.19-.23Z" />
            <path class="cls-2-full"
                d="M167.21,67.86c.18,0,.23,0,.24.2l0,.3c0,.15,0,.21-.21.22l-.32,0a4,4,0,0,0-1.06.23.19.19,0,0,0-.12.19c.1,1.14.19,2.28.29,3.42,0,.17,0,.22-.2.23l-.39,0c-.15,0-.21,0-.23-.19-.1-1.24-.21-2.47-.32-3.71,0-.28,0-.38.31-.52a5.17,5.17,0,0,1,1.69-.41Z" />
            <path class="cls-2-full"
                d="M167.9,69.52c-.08-1.06.66-1.76,2-1.84s2.14.51,2.21,1.57l.09,1.44c.06,1-.65,1.73-2,1.81S168.1,72,168,71C168,70.48,167.94,70,167.9,69.52Zm3.34-.23c0-.61-.53-1-1.33-.9s-1.23.45-1.18,1.06.07,1,.11,1.45.54.94,1.31.89,1.23-.44,1.19-1.05S171.27,69.77,171.24,69.29Z" />
            <path class="cls-2-full"
                d="M174.76,67.4a1.92,1.92,0,0,1,2,.87.19.19,0,0,1-.09.31l-.31.14c-.18.08-.21,0-.32-.09-.21-.37-.54-.55-1.22-.51s-1.05.26-1,.69.39.6,1.3.63a3.43,3.43,0,0,1,1.4.3,1.1,1.1,0,0,1,.5,1c0,.88-.61,1.44-1.86,1.5a1.93,1.93,0,0,1-2.08-1c-.07-.14,0-.24.13-.29l.3-.12a.22.22,0,0,1,.31.11c.2.42.62.61,1.28.58s1.14-.28,1.11-.73-.38-.6-1.26-.64a4.38,4.38,0,0,1-1.07-.15,1.13,1.13,0,0,1-.44-.21,1.21,1.21,0,0,1-.45-.92C172.91,68,173.53,67.46,174.76,67.4Z" />
            <path class="cls-2-full"
                d="M177.56,69.17c-.05-1.2.66-1.92,2-2s2.14.67,2.17,1.77v.51c0,.21-.1.32-.33.32l-3,.1c0,.14,0,.28,0,.43,0,.68.48,1,1.28,1a1.37,1.37,0,0,0,1.26-.65c.11-.15.2-.18.36-.09l.25.12c.16.08.2.19.1.34a2.12,2.12,0,0,1-2,1c-1.37,0-2.07-.63-2.12-1.76C177.59,69.9,177.58,69.54,177.56,69.17Zm3.37-.22c0-.71-.48-1.1-1.31-1.08s-1.27.47-1.24,1.16a2.35,2.35,0,0,1,0,.26l2.55-.08A2.26,2.26,0,0,1,180.93,69Z" />
            <path class="cls-2-full"
                d="M184.43,67.08a1.94,1.94,0,0,1,2,.93.2.2,0,0,1-.11.31l-.32.13c-.17.07-.2,0-.31-.1-.2-.38-.53-.57-1.2-.55s-1.06.23-1.05.65.38.62,1.28.68a3.43,3.43,0,0,1,1.39.34,1.09,1.09,0,0,1,.47,1c0,.87-.66,1.42-1.91,1.44a1.92,1.92,0,0,1-2-1c-.07-.14,0-.24.13-.28l.31-.12a.23.23,0,0,1,.3.13c.19.42.6.62,1.26.61s1.15-.24,1.14-.69-.36-.61-1.24-.68a4.11,4.11,0,0,1-1.06-.18,1.2,1.2,0,0,1-.44-.22,1.23,1.23,0,0,1-.42-.94C182.56,67.64,183.2,67.1,184.43,67.08Z" />
            <path class="cls-2-full"
                d="M190.35,66.1c.16,0,.23.05.23.21v.85h1.22c.16,0,.22.06.22.21v.31c0,.15-.06.22-.22.21h-1.22c0,.69,0,1.37,0,2.06a1.26,1.26,0,0,0,.25.92,1.44,1.44,0,0,0,.94.24c.18,0,.23,0,.23.21v.32c0,.15-.06.2-.23.21a2.22,2.22,0,0,1-1.56-.38,2,2,0,0,1-.45-1.5V67.9H189c-.16,0-.22-.06-.22-.21v-.31c0-.17.06-.21.22-.21h.78c0-.28,0-.56,0-.85s.06-.21.22-.21Z" />
            <path class="cls-2-full"
                d="M192.58,68.74c0-1.06.8-1.69,2.11-1.67s2.09.68,2.07,1.74c0,.48,0,1,0,1.44,0,1-.79,1.67-2.11,1.65s-2.05-.66-2-1.71C192.57,69.71,192.57,69.22,192.58,68.74Zm3.35,0c0-.61-.46-1-1.25-1s-1.27.34-1.27.95,0,1,0,1.45.46,1,1.23,1,1.27-.35,1.28-1Z" />
            <path class="cls-2-full"
                d="M203.75,67.47c.17,0,.22.06.21.23-.07,1.52-.15,3-.22,4.57a1.73,1.73,0,0,1-2.06,1.83,2,2,0,0,1-1.83-1c-.09-.16,0-.26.11-.34l.27-.13c.17-.07.25,0,.35.09a1.23,1.23,0,0,0,1.12.64,1,1,0,0,0,1.22-1.12c0-.16,0-.32,0-.48a5.08,5.08,0,0,1-1.29.13c-1.25,0-1.85-.65-1.81-1.82,0-.85,0-1.71.08-2.56,0-.17.06-.21.23-.21l.4,0c.16,0,.21.07.2.22l-.09,2.54c0,.7.35,1.06,1.13,1.09a3.93,3.93,0,0,0,1.19-.14l.15-3.4c0-.17.07-.21.23-.2Z" />
            <path class="cls-2-full"
                d="M204.88,69.1c.06-1.07.88-1.67,2.19-1.59s2.06.76,2,1.82L209,70.77c-.07,1-.87,1.64-2.19,1.56s-2-.74-2-1.79C204.83,70.06,204.86,69.58,204.88,69.1Zm3.35.17c0-.61-.41-1-1.2-1s-1.29.3-1.32.91-.05,1-.08,1.45.42,1,1.2,1,1.27-.29,1.31-.9Z" />
            <path class="cls-2-full"
                d="M214,68.1c.18,0,.22.06.21.23-.11,1.22-.21,2.45-.31,3.68,0,.28-.1.37-.39.47a5.29,5.29,0,0,1-1.78.16c-1.24-.08-1.83-.71-1.75-1.87.07-.91.13-1.82.19-2.73,0-.17.06-.21.24-.2l.39,0c.16,0,.21.07.2.22-.06.9-.13,1.8-.19,2.71,0,.69.31,1.07,1.08,1.13a3.77,3.77,0,0,0,1.06-.08.2.2,0,0,0,.15-.19l.27-3.4c0-.16.09-.2.25-.19Z" />
            <path class="cls-2-full"
                d="M217.69,68.28c.18,0,.22.08.2.23l0,.3c0,.15-.06.21-.24.19l-.33,0a3.88,3.88,0,0,0-1.08.06.18.18,0,0,0-.15.16c-.1,1.15-.2,2.29-.31,3.43,0,.16-.06.2-.23.19l-.39,0c-.16,0-.21-.08-.19-.23.1-1.24.21-2.47.32-3.71,0-.28.1-.37.4-.46a5.19,5.19,0,0,1,1.73-.13Z" />
            <path class="cls-2-full"
                d="M220.14,70.33a1.67,1.67,0,0,1,2.09-1.61,5.75,5.75,0,0,1,1.28.33l.21-1.82c0-.16.09-.2.25-.18l.39,0c.16,0,.21.09.19.23q-.33,2.85-.67,5.68c0,.29-.11.36-.41.44a4.89,4.89,0,0,1-1.68.1c-1.31-.14-1.9-.79-1.78-2C220.06,71.15,220.1,70.74,220.14,70.33Zm3.29-.55a3.78,3.78,0,0,0-1.13-.32c-.81-.09-1.25.24-1.32,1,0,.4-.09.8-.13,1.19-.08.72.29,1.12,1.1,1.2a3.28,3.28,0,0,0,1,0,.17.17,0,0,0,.14-.16C223.2,71.68,223.31,70.73,223.43,69.78Z" />
            <path class="cls-2-full"
                d="M225.15,70.75c.13-1,1-1.6,2.3-1.44s2,.9,1.86,2c-.07.48-.13.95-.2,1.43-.14,1-1,1.58-2.28,1.42s-2-.88-1.85-1.92C225,71.71,225.09,71.23,225.15,70.75Zm3.34.4c.08-.61-.35-1-1.14-1.13s-1.3.21-1.37.82l-.18,1.44c-.08.61.35,1,1.12,1.12s1.29-.21,1.37-.81S228.42,71.63,228.49,71.15Z" />
            <path class="cls-2-full"
                d="M230.16,71.37c.15-1.05,1-1.58,2.32-1.4s2,.93,1.83,2c-.07.47-.15,1-.22,1.42-.16,1-1,1.57-2.31,1.38s-2-.9-1.82-2C230,72.32,230.09,71.85,230.16,71.37Zm3.33.45c.09-.6-.33-1-1.12-1.14s-1.3.19-1.38.79l-.21,1.44c-.09.61.33,1,1.1,1.13s1.3-.18,1.39-.78S233.42,72.3,233.49,71.82Z" />
            <path class="cls-2-full"
                d="M237.91,70.77c.18,0,.21.1.19.25a2.5,2.5,0,0,0,0,.29c0,.15-.08.21-.26.18l-.32,0a4,4,0,0,0-1.09,0,.19.19,0,0,0-.16.16L235.68,75c0,.17-.08.2-.26.18l-.38-.06c-.15,0-.2-.09-.18-.24.2-1.23.39-2.45.58-3.68.05-.28.13-.36.43-.43a5.26,5.26,0,0,1,1.74,0Z" />
            <path class="cls-3-full"
                d="M41.32,86c3,0,7.1-1.95,10.5-10.64,3.94,2.5,7.38,3.77,10.25,3.76a7.4,7.4,0,0,0,4.5-1.38C69,76,71.17,72,68.82,63c9.32-.59,12.42-3.92,13.34-6.75s.34-7.35-6.87-13.27C82.48,37,83,32.48,82.11,29.64s-4-6.15-13.36-6.7c2.33-9,.13-13-2.29-14.77A7.42,7.42,0,0,0,62,6.81c-2.87,0-6.31,1.27-10.24,3.79C48.28,1.93,44.17,0,41.17,0s-7.1,2-10.5,10.63c-3.94-2.5-7.38-3.76-10.25-3.76a7.54,7.54,0,0,0-4.5,1.38C13.5,10,11.32,14,13.67,23,4.35,23.62,1.25,26.94.33,29.77S0,37.13,7.2,43.05C0,49-.55,53.5.38,56.35s4,6.14,13.36,6.7c-2.32,9-.13,13,2.29,14.77a7.58,7.58,0,0,0,4.51,1.36c2.87,0,6.31-1.28,10.24-3.79C34.21,84.06,38.32,86,41.32,86Z" />
            <circle class="cls-3-full" cx="41.27" cy="42.58" r="26.44" transform="translate(-5.46 79.08) rotate(-83.89)" />
            <path class="cls-1-full"
                d="M3.81,55.12c1.75,4.6,8,5.38,12.71,5.5C15.19,65.17,14,71.56,18.07,74.54s9.86-.13,13.78-2.83c1.61,4.52,4.41,10.39,9.48,10.38s7.85-5.89,9.45-10.41c3.93,2.68,9.69,5.82,13.79,2.78s2.85-9.37,1.5-13.92c4.7-.14,11-.94,12.69-5.55,1.84-4.91-3-9.48-6.88-12.46,3.87-3,8.7-7.59,6.84-12.49-1.75-4.6-8-5.39-12.71-5.51,1.33-4.55,2.52-10.94-1.54-13.92s-9.86.13-13.78,2.83C49.07,8.92,46.28,3.06,41.2,3.06S33.35,9,31.75,13.47C27.82,10.79,22.06,7.66,18,10.69s-2.84,9.38-1.5,13.92c-4.69.14-11,.94-12.69,5.55-1.84,4.91,3,9.48,6.89,12.47C6.78,45.63,2,50.21,3.81,55.12ZM11,28.58a23.21,23.21,0,0,1,4.62-.68A29,29,0,0,0,12,39.59C9.11,37.38,5.48,34,6.89,31.07,7.61,29.6,9.59,29,11,28.58Zm8.75-1.24a1.68,1.68,0,0,0,.33-.46c.26-.35.53-.7.81-1a26.63,26.63,0,0,1,28.24-8.38,1.67,1.67,0,0,0,.56.18l.49.17a26.58,26.58,0,0,1,17.37,24.7v0A26.68,26.68,0,0,1,49.77,67.49a1.53,1.53,0,0,0-.46.14,24.71,24.71,0,0,1-2.87.77A26.59,26.59,0,0,1,20.13,58.27a1.48,1.48,0,0,0-.25-.35q-.66-.9-1.23-1.86A26.59,26.59,0,0,1,19.79,27.34Zm4.91-14a22,22,0,0,1,4.56,2.33,29.75,29.75,0,0,0-10,7.2c-1-3.37-1.85-7.9.64-9.65C21.29,12.28,23.28,12.85,24.7,13.36Zm22.68.34-.46-.1A29.85,29.85,0,0,0,35,13.79c1.16-3.27,3.13-7.49,6.17-7.49S46.2,10.44,47.38,13.7Zm15.78,9.2a29.27,29.27,0,0,0-9.95-7.32c2.88-2,6.83-4.13,9.29-2.41S64.14,19.51,63.16,22.9Zm7.42,16.58a30.16,30.16,0,0,0-3.91-11.73c3.36.08,7.61.58,8.94,3.21C77.05,33.82,73.42,37.26,70.58,39.48Zm.91,17.09a23.48,23.48,0,0,1-4.72.69A30.15,30.15,0,0,0,70.6,45.58c2.83,2.21,6.45,5.62,5.05,8.5C74.93,55.55,73,56.19,71.49,56.57ZM57.83,71.8a22.14,22.14,0,0,1-4.49-2.3,29.37,29.37,0,0,0,9.88-7.31c1,3.39,1.89,8-.62,9.72C61.24,72.87,59.25,72.3,57.83,71.8Zm-22.69-.4a29.61,29.61,0,0,0,12.33,0c-1.17,3.26-3.13,7.41-6.14,7.42S36.32,74.66,35.14,71.4ZM19.35,62.34a29.2,29.2,0,0,0,10,7.2c-2.9,2-6.87,4.17-9.35,2.44S18.37,65.72,19.35,62.34ZM12,45.64a30,30,0,0,0,3.8,11.76c-3.34-.09-7.54-.6-8.85-3.21C5.48,51.32,9.14,47.87,12,45.64Z" />
            <circle class="cls-2-full" cx="41.24" cy="42.58" r="18.12" />
            <path class="cls-1-full"
                d="M24.88,56.26a21.33,21.33,0,0,0,37.7-13.72c-.16-10.1-7.37-19.17-17.46-20.94A21.33,21.33,0,0,0,24.88,56.26ZM27.28,31a18.15,18.15,0,1,1-1.5,21.1A18.34,18.34,0,0,1,27.28,31Z" />
            <path class="cls-3-full" d="M46.78,42.57a5.52,5.52,0,1,0-5.5,5.52A5.51,5.51,0,0,0,46.78,42.57Z" />
        </g>
    </g>
</svg>